<?xml version="1.0" encoding="UTF-8"?>
<svg id="Layer_1" data-name="Layer 1" xmlns="http://www.w3.org/2000/svg" viewBox="0 0 912.62 325.52">
  <defs>
    <style>
      .cls-1 {
        fill: #582f37;
      }
    </style>
  </defs>
  <g>
    <path class="cls-1" d="M24.27,30.33c8.49,0,15.13-6.71,15.13-15.2S32.84,0,24.35,0s-15.17,6.72-15.17,15.21,6.55,15.13,15.09,15.13ZM24.27,2.29c7.15,0,12.64,5.69,12.64,12.92s-5.41,12.84-12.56,12.84-12.68-5.68-12.68-12.92S17.08,2.29,24.27,2.29Z"/>
    <path class="cls-1" d="M21.62,16.71h2.76l3.32,6.44h3.36l-3.59-6.83c2.01-.67,3.36-2.05,3.36-4.66,0-3.35-2.29-5.06-6.2-5.06h-6.12v16.55h3.12v-6.44ZM21.62,9.37h2.8c2.14,0,3.32.71,3.32,2.45s-1.19,2.53-3.28,2.53h-2.84v-4.97Z"/>
    <path class="cls-1" d="M380.24,93.63L491.31,13.21c3.38-2.43,1.58-7.82-2.53-7.82h-143.94c-10.99,0-21.67,3.48-30.54,9.94l-118.15,85.92c-1.59,1.16-3.81.63-4.76-1.06L142.98,11.41c-2.11-3.59-6.76-5.07-10.57-2.96l-8.88,4.97C116.36,17.33,4.75,78.52,0,81.27c3.81-2.12,9.93,5.39,14.37,11.83,1.27,1.9,2.43,3.7,3.28,5.18.53.85,1.06,1.69,1.37,2.22.21.32.32.53.42.74.11.1.11.21.11.21l112.97,205.55,42.48-185.04c2.11-9.19,8.98-17.97,18.07-18.39h156.72c10.88,0,21.56-3.49,30.44-9.94Z"/>
  </g>
  <g>
    <polygon class="cls-1" points="320.28 296.22 279.1 177.7 246.9 177.7 302.07 323.15 337.97 323.15 393.4 177.7 361.46 177.7 320.28 296.22"/>
    <path class="cls-1" d="M902.86,210.96c-6.51-11.44-15.4-20.24-26.66-26.4-11.26-6.16-23.85-9.24-37.75-9.24s-26.49,3.08-37.75,9.24c-11.26,6.16-20.15,14.96-26.66,26.4-6.51,11.44-9.77,24.55-9.77,39.33s3.16,28.11,9.5,39.46c6.33,11.35,15.04,20.15,26.13,26.4,11.09,6.25,23.49,9.37,37.22,9.37s26.62-3.12,38.15-9.37c11.52-6.24,20.63-15.09,27.32-26.53,6.69-11.44,10.03-24.55,10.03-39.33s-3.26-27.89-9.77-39.33ZM875.41,277.22c-4.22,7.39-9.73,12.93-16.5,16.63-6.78,3.69-14.04,5.55-21.78,5.55-12.14,0-22.22-4.26-30.22-12.8-8.01-8.53-12.01-20.63-12.01-36.29,0-10.56,1.93-19.49,5.81-26.8,3.87-7.3,9.11-12.8,15.7-16.5,6.6-3.69,13.77-5.54,21.51-5.54s14.96,1.85,21.64,5.54c6.69,3.7,12.05,9.2,16.1,16.5,4.05,7.31,6.07,16.23,6.07,26.8s-2.11,19.53-6.33,26.92Z"/>
    <path class="cls-1" d="M704.09,188.35c-1.95-1.34-3.95-2.63-6.07-3.79-11.26-6.16-23.85-9.24-37.75-9.24s-26.49,3.08-37.75,9.24c-11.26,6.16-20.15,14.96-26.66,26.4-6.51,11.44-9.77,24.55-9.77,39.33s3.16,28.11,9.5,39.46c6.33,11.35,15.04,20.15,26.13,26.4,11.09,6.25,23.49,9.37,37.22,9.37s26.62-3.12,38.15-9.37c2.45-1.33,4.76-2.8,6.99-4.36v13.73h30.36v-195.34h-30.36v58.16ZM697.23,277.22c-4.22,7.39-9.73,12.93-16.5,16.63-6.78,3.69-14.04,5.55-21.78,5.55-12.14,0-22.22-4.26-30.22-12.8-8.01-8.53-12.01-20.63-12.01-36.29,0-10.56,1.93-19.49,5.81-26.8,3.87-7.3,9.11-12.8,15.7-16.5,6.6-3.69,13.77-5.54,21.51-5.54s14.96,1.85,21.64,5.54c6.69,3.7,12.05,9.2,16.1,16.5,4.05,7.31,6.07,16.23,6.07,26.8s-2.11,19.53-6.33,26.92Z"/>
    <path class="cls-1" d="M525.12,188.88c-2.18-1.55-4.45-3.01-6.84-4.32-11.26-6.16-23.85-9.24-37.75-9.24s-26.49,3.08-37.75,9.24c-11.26,6.16-20.15,14.96-26.66,26.4-6.51,11.44-9.77,24.55-9.77,39.33s3.16,28.11,9.5,39.46c6.33,11.35,15.04,20.15,26.13,26.4,11.09,6.25,23.49,9.37,37.22,9.37s26.62-3.12,38.15-9.37c2.73-1.48,5.31-3.11,7.77-4.88v14.25h30.36v-150.2h-30.36v13.56ZM517.49,277.22c-4.22,7.39-9.73,12.93-16.5,16.63-6.78,3.69-14.04,5.55-21.78,5.55-12.14,0-22.22-4.26-30.22-12.8-8.01-8.53-12.01-20.63-12.01-36.29,0-10.56,1.93-19.49,5.81-26.8,3.87-7.3,9.11-12.8,15.7-16.5,6.6-3.69,13.77-5.54,21.51-5.54s14.96,1.85,21.64,5.54c6.69,3.7,12.05,9.2,16.1,16.5,4.05,7.31,6.07,16.23,6.07,26.8s-2.11,19.53-6.33,26.92Z"/>
  </g>
</svg>